<mxfile host="app.diagrams.net" modified="2022-08-23T14:15:48.436Z" agent="5.0 (Windows NT 10.0; Win64; x64) AppleWebKit/537.36 (KHTML, like Gecko) Chrome/103.0.5060.134 Safari/537.36 OPR/89.0.4447.98" etag="7lVZqYMjPEY-OjTVNDw-" version="20.2.6" type="github">
  <diagram id="-_xpnEg67YFmjAfGcV68" name="Página-1">
    <mxGraphModel dx="2208" dy="802" grid="1" gridSize="10" guides="1" tooltips="1" connect="1" arrows="1" fold="1" page="1" pageScale="1" pageWidth="827" pageHeight="1169" math="0" shadow="0">
      <root>
        <mxCell id="0" />
        <mxCell id="1" parent="0" />
        <mxCell id="NkWYa5Ao2wydhZJ7beP6-1" value="" style="edgeStyle=orthogonalEdgeStyle;rounded=0;orthogonalLoop=1;jettySize=auto;html=1;" edge="1" parent="1" source="NkWYa5Ao2wydhZJ7beP6-6" target="NkWYa5Ao2wydhZJ7beP6-8">
          <mxGeometry relative="1" as="geometry" />
        </mxCell>
        <mxCell id="NkWYa5Ao2wydhZJ7beP6-2" value="" style="edgeStyle=orthogonalEdgeStyle;rounded=0;orthogonalLoop=1;jettySize=auto;html=1;" edge="1" parent="1" source="NkWYa5Ao2wydhZJ7beP6-6" target="NkWYa5Ao2wydhZJ7beP6-9">
          <mxGeometry relative="1" as="geometry">
            <Array as="points">
              <mxPoint x="370" y="200" />
              <mxPoint x="310" y="200" />
            </Array>
          </mxGeometry>
        </mxCell>
        <mxCell id="NkWYa5Ao2wydhZJ7beP6-3" value="" style="edgeStyle=orthogonalEdgeStyle;rounded=0;orthogonalLoop=1;jettySize=auto;html=1;" edge="1" parent="1" source="NkWYa5Ao2wydhZJ7beP6-6" target="NkWYa5Ao2wydhZJ7beP6-11">
          <mxGeometry relative="1" as="geometry" />
        </mxCell>
        <mxCell id="NkWYa5Ao2wydhZJ7beP6-4" value="" style="edgeStyle=orthogonalEdgeStyle;rounded=0;orthogonalLoop=1;jettySize=auto;html=1;" edge="1" parent="1" source="NkWYa5Ao2wydhZJ7beP6-6" target="NkWYa5Ao2wydhZJ7beP6-12">
          <mxGeometry relative="1" as="geometry">
            <Array as="points">
              <mxPoint x="450" y="200" />
            </Array>
          </mxGeometry>
        </mxCell>
        <mxCell id="NkWYa5Ao2wydhZJ7beP6-5" value="" style="edgeStyle=orthogonalEdgeStyle;rounded=0;orthogonalLoop=1;jettySize=auto;html=1;" edge="1" parent="1" source="NkWYa5Ao2wydhZJ7beP6-6" target="NkWYa5Ao2wydhZJ7beP6-16">
          <mxGeometry relative="1" as="geometry">
            <Array as="points">
              <mxPoint x="410" y="170" />
              <mxPoint x="410" y="170" />
            </Array>
          </mxGeometry>
        </mxCell>
        <mxCell id="NkWYa5Ao2wydhZJ7beP6-6" value="Home" style="rounded=0;whiteSpace=wrap;html=1;fillColor=#f8cecc;strokeColor=#b85450;" vertex="1" parent="1">
          <mxGeometry x="354" y="30" width="120" height="60" as="geometry" />
        </mxCell>
        <mxCell id="NkWYa5Ao2wydhZJ7beP6-7" value="" style="edgeStyle=orthogonalEdgeStyle;rounded=0;orthogonalLoop=1;jettySize=auto;html=1;" edge="1" parent="1" source="NkWYa5Ao2wydhZJ7beP6-8" target="NkWYa5Ao2wydhZJ7beP6-22">
          <mxGeometry relative="1" as="geometry" />
        </mxCell>
        <mxCell id="NkWYa5Ao2wydhZJ7beP6-8" value="Sobre Nós" style="rounded=0;whiteSpace=wrap;html=1;fillColor=#f8cecc;strokeColor=#b85450;" vertex="1" parent="1">
          <mxGeometry x="160" y="100" width="120" height="60" as="geometry" />
        </mxCell>
        <mxCell id="NkWYa5Ao2wydhZJ7beP6-9" value="Categorias" style="rounded=0;whiteSpace=wrap;html=1;fillColor=#dae8fc;strokeColor=#6c8ebf;" vertex="1" parent="1">
          <mxGeometry x="210" y="170" width="120" height="60" as="geometry" />
        </mxCell>
        <mxCell id="NkWYa5Ao2wydhZJ7beP6-10" value="" style="edgeStyle=orthogonalEdgeStyle;rounded=0;orthogonalLoop=1;jettySize=auto;html=1;" edge="1" parent="1" source="NkWYa5Ao2wydhZJ7beP6-11" target="NkWYa5Ao2wydhZJ7beP6-23">
          <mxGeometry relative="1" as="geometry" />
        </mxCell>
        <mxCell id="NkWYa5Ao2wydhZJ7beP6-11" value="Login" style="rounded=0;whiteSpace=wrap;html=1;fillColor=#f8cecc;strokeColor=#b85450;" vertex="1" parent="1">
          <mxGeometry x="540" y="100" width="120" height="60" as="geometry" />
        </mxCell>
        <mxCell id="NkWYa5Ao2wydhZJ7beP6-12" value="Mecanismo de Busca" style="rounded=0;whiteSpace=wrap;html=1;fillColor=#dae8fc;strokeColor=#6c8ebf;" vertex="1" parent="1">
          <mxGeometry x="490" y="170" width="120" height="60" as="geometry" />
        </mxCell>
        <mxCell id="NkWYa5Ao2wydhZJ7beP6-13" value="" style="edgeStyle=orthogonalEdgeStyle;rounded=0;orthogonalLoop=1;jettySize=auto;html=1;" edge="1" parent="1" source="NkWYa5Ao2wydhZJ7beP6-16" target="NkWYa5Ao2wydhZJ7beP6-17">
          <mxGeometry relative="1" as="geometry" />
        </mxCell>
        <mxCell id="NkWYa5Ao2wydhZJ7beP6-14" value="" style="edgeStyle=orthogonalEdgeStyle;rounded=0;orthogonalLoop=1;jettySize=auto;html=1;" edge="1" parent="1" source="NkWYa5Ao2wydhZJ7beP6-16" target="NkWYa5Ao2wydhZJ7beP6-18">
          <mxGeometry relative="1" as="geometry" />
        </mxCell>
        <mxCell id="NkWYa5Ao2wydhZJ7beP6-15" value="" style="edgeStyle=orthogonalEdgeStyle;rounded=0;orthogonalLoop=1;jettySize=auto;html=1;" edge="1" parent="1" source="NkWYa5Ao2wydhZJ7beP6-16" target="NkWYa5Ao2wydhZJ7beP6-26">
          <mxGeometry relative="1" as="geometry" />
        </mxCell>
        <mxCell id="NkWYa5Ao2wydhZJ7beP6-16" value="Amostra de Produtos" style="rounded=0;whiteSpace=wrap;html=1;fillColor=#f8cecc;strokeColor=#b85450;" vertex="1" parent="1">
          <mxGeometry x="353.5" y="230" width="120" height="60" as="geometry" />
        </mxCell>
        <mxCell id="NkWYa5Ao2wydhZJ7beP6-17" value="Detalhes" style="rounded=0;whiteSpace=wrap;html=1;dashed=1;" vertex="1" parent="1">
          <mxGeometry x="220" y="310" width="120" height="60" as="geometry" />
        </mxCell>
        <mxCell id="NkWYa5Ao2wydhZJ7beP6-18" value="Avaliações" style="rounded=0;whiteSpace=wrap;html=1;dashed=1;" vertex="1" parent="1">
          <mxGeometry x="490" y="310" width="120" height="60" as="geometry" />
        </mxCell>
        <mxCell id="NkWYa5Ao2wydhZJ7beP6-19" value="" style="edgeStyle=orthogonalEdgeStyle;rounded=0;orthogonalLoop=1;jettySize=auto;html=1;" edge="1" parent="1" source="NkWYa5Ao2wydhZJ7beP6-22" target="NkWYa5Ao2wydhZJ7beP6-49">
          <mxGeometry relative="1" as="geometry" />
        </mxCell>
        <mxCell id="NkWYa5Ao2wydhZJ7beP6-20" value="" style="edgeStyle=orthogonalEdgeStyle;rounded=0;orthogonalLoop=1;jettySize=auto;html=1;" edge="1" parent="1" source="NkWYa5Ao2wydhZJ7beP6-22" target="NkWYa5Ao2wydhZJ7beP6-42">
          <mxGeometry relative="1" as="geometry">
            <Array as="points">
              <mxPoint x="20" y="240" />
            </Array>
          </mxGeometry>
        </mxCell>
        <mxCell id="NkWYa5Ao2wydhZJ7beP6-21" value="" style="edgeStyle=orthogonalEdgeStyle;rounded=0;orthogonalLoop=1;jettySize=auto;html=1;" edge="1" parent="1" source="NkWYa5Ao2wydhZJ7beP6-22" target="NkWYa5Ao2wydhZJ7beP6-52">
          <mxGeometry relative="1" as="geometry" />
        </mxCell>
        <mxCell id="NkWYa5Ao2wydhZJ7beP6-22" value="Contato&lt;br&gt;" style="rounded=0;whiteSpace=wrap;html=1;fillColor=#f8cecc;strokeColor=#b85450;" vertex="1" parent="1">
          <mxGeometry y="100" width="120" height="60" as="geometry" />
        </mxCell>
        <mxCell id="NkWYa5Ao2wydhZJ7beP6-23" value="E-mail&lt;br&gt;G-mail&lt;br&gt;" style="rounded=0;whiteSpace=wrap;html=1;fillColor=#f8cecc;strokeColor=#b85450;" vertex="1" parent="1">
          <mxGeometry x="740" y="100" width="120" height="60" as="geometry" />
        </mxCell>
        <mxCell id="NkWYa5Ao2wydhZJ7beP6-24" value="" style="edgeStyle=orthogonalEdgeStyle;rounded=0;orthogonalLoop=1;jettySize=auto;html=1;" edge="1" parent="1" source="NkWYa5Ao2wydhZJ7beP6-26" target="NkWYa5Ao2wydhZJ7beP6-29">
          <mxGeometry relative="1" as="geometry" />
        </mxCell>
        <mxCell id="NkWYa5Ao2wydhZJ7beP6-25" value="" style="edgeStyle=orthogonalEdgeStyle;rounded=0;orthogonalLoop=1;jettySize=auto;html=1;" edge="1" parent="1" source="NkWYa5Ao2wydhZJ7beP6-26" target="NkWYa5Ao2wydhZJ7beP6-31">
          <mxGeometry relative="1" as="geometry" />
        </mxCell>
        <mxCell id="NkWYa5Ao2wydhZJ7beP6-26" value="Comprar" style="rounded=0;whiteSpace=wrap;html=1;fillColor=#f8cecc;strokeColor=#b85450;" vertex="1" parent="1">
          <mxGeometry x="353.5" y="370" width="120" height="60" as="geometry" />
        </mxCell>
        <mxCell id="NkWYa5Ao2wydhZJ7beP6-27" value="" style="edgeStyle=orthogonalEdgeStyle;rounded=0;orthogonalLoop=1;jettySize=auto;html=1;" edge="1" parent="1" source="NkWYa5Ao2wydhZJ7beP6-29" target="NkWYa5Ao2wydhZJ7beP6-32">
          <mxGeometry relative="1" as="geometry" />
        </mxCell>
        <mxCell id="NkWYa5Ao2wydhZJ7beP6-28" value="" style="edgeStyle=orthogonalEdgeStyle;rounded=0;orthogonalLoop=1;jettySize=auto;html=1;" edge="1" parent="1" source="NkWYa5Ao2wydhZJ7beP6-29" target="NkWYa5Ao2wydhZJ7beP6-36">
          <mxGeometry relative="1" as="geometry" />
        </mxCell>
        <mxCell id="NkWYa5Ao2wydhZJ7beP6-29" value="Sim" style="rounded=0;whiteSpace=wrap;html=1;fillColor=#f8cecc;strokeColor=#b85450;dashed=1;" vertex="1" parent="1">
          <mxGeometry x="510" y="440" width="120" height="60" as="geometry" />
        </mxCell>
        <mxCell id="NkWYa5Ao2wydhZJ7beP6-30" value="" style="edgeStyle=orthogonalEdgeStyle;rounded=0;orthogonalLoop=1;jettySize=auto;html=1;" edge="1" parent="1" source="NkWYa5Ao2wydhZJ7beP6-31" target="NkWYa5Ao2wydhZJ7beP6-33">
          <mxGeometry relative="1" as="geometry" />
        </mxCell>
        <mxCell id="NkWYa5Ao2wydhZJ7beP6-31" value="Não" style="rounded=0;whiteSpace=wrap;html=1;fillColor=#f8cecc;strokeColor=#b85450;dashed=1;" vertex="1" parent="1">
          <mxGeometry x="220" y="440" width="120" height="60" as="geometry" />
        </mxCell>
        <mxCell id="NkWYa5Ao2wydhZJ7beP6-32" value="CEP" style="rounded=0;whiteSpace=wrap;html=1;fillColor=#f8cecc;strokeColor=#b85450;" vertex="1" parent="1">
          <mxGeometry x="710" y="440" width="120" height="60" as="geometry" />
        </mxCell>
        <mxCell id="NkWYa5Ao2wydhZJ7beP6-33" value="Retorna ao Home" style="rounded=0;whiteSpace=wrap;html=1;fillColor=#f8cecc;strokeColor=#b85450;" vertex="1" parent="1">
          <mxGeometry x="220" y="540" width="120" height="60" as="geometry" />
        </mxCell>
        <mxCell id="NkWYa5Ao2wydhZJ7beP6-34" value="" style="edgeStyle=orthogonalEdgeStyle;rounded=0;orthogonalLoop=1;jettySize=auto;html=1;" edge="1" parent="1" source="NkWYa5Ao2wydhZJ7beP6-36" target="NkWYa5Ao2wydhZJ7beP6-38">
          <mxGeometry relative="1" as="geometry" />
        </mxCell>
        <mxCell id="NkWYa5Ao2wydhZJ7beP6-35" value="" style="edgeStyle=orthogonalEdgeStyle;rounded=0;orthogonalLoop=1;jettySize=auto;html=1;" edge="1" parent="1" source="NkWYa5Ao2wydhZJ7beP6-36" target="NkWYa5Ao2wydhZJ7beP6-41">
          <mxGeometry relative="1" as="geometry" />
        </mxCell>
        <mxCell id="NkWYa5Ao2wydhZJ7beP6-36" value="Formas de Pagamento" style="rounded=0;whiteSpace=wrap;html=1;fillColor=#f8cecc;strokeColor=#b85450;" vertex="1" parent="1">
          <mxGeometry x="510" y="580" width="120" height="60" as="geometry" />
        </mxCell>
        <mxCell id="NkWYa5Ao2wydhZJ7beP6-37" value="" style="edgeStyle=orthogonalEdgeStyle;rounded=0;orthogonalLoop=1;jettySize=auto;html=1;startArrow=none;" edge="1" parent="1" source="NkWYa5Ao2wydhZJ7beP6-43" target="NkWYa5Ao2wydhZJ7beP6-40">
          <mxGeometry relative="1" as="geometry" />
        </mxCell>
        <mxCell id="NkWYa5Ao2wydhZJ7beP6-38" value="Cartão de Crédito" style="rounded=0;whiteSpace=wrap;html=1;fillColor=#f8cecc;strokeColor=#b85450;dashed=1;" vertex="1" parent="1">
          <mxGeometry x="650" y="650" width="120" height="60" as="geometry" />
        </mxCell>
        <mxCell id="NkWYa5Ao2wydhZJ7beP6-39" value="" style="edgeStyle=orthogonalEdgeStyle;rounded=0;orthogonalLoop=1;jettySize=auto;html=1;" edge="1" parent="1" source="NkWYa5Ao2wydhZJ7beP6-40" target="NkWYa5Ao2wydhZJ7beP6-47">
          <mxGeometry relative="1" as="geometry" />
        </mxCell>
        <mxCell id="NkWYa5Ao2wydhZJ7beP6-40" value="Redirecionamento para página segura" style="rounded=0;whiteSpace=wrap;html=1;fillColor=#f8cecc;strokeColor=#b85450;" vertex="1" parent="1">
          <mxGeometry x="500" y="780" width="120" height="60" as="geometry" />
        </mxCell>
        <mxCell id="NkWYa5Ao2wydhZJ7beP6-41" value="Boleto" style="rounded=0;whiteSpace=wrap;html=1;fillColor=#f8cecc;strokeColor=#b85450;dashed=1;" vertex="1" parent="1">
          <mxGeometry x="354" y="650" width="120" height="60" as="geometry" />
        </mxCell>
        <mxCell id="NkWYa5Ao2wydhZJ7beP6-42" value="Email de Suporte" style="rounded=0;whiteSpace=wrap;html=1;fillColor=#f8cecc;strokeColor=#b85450;dashed=1;" vertex="1" parent="1">
          <mxGeometry x="-260" y="210" width="120" height="60" as="geometry" />
        </mxCell>
        <mxCell id="NkWYa5Ao2wydhZJ7beP6-43" value="Pix" style="rounded=0;whiteSpace=wrap;html=1;fillColor=#f8cecc;strokeColor=#b85450;dashed=1;" vertex="1" parent="1">
          <mxGeometry x="500" y="680" width="120" height="60" as="geometry" />
        </mxCell>
        <mxCell id="NkWYa5Ao2wydhZJ7beP6-44" value="" style="endArrow=classic;html=1;rounded=0;exitX=0.5;exitY=1;exitDx=0;exitDy=0;" edge="1" parent="1" source="NkWYa5Ao2wydhZJ7beP6-38">
          <mxGeometry width="50" height="50" relative="1" as="geometry">
            <mxPoint x="745" y="760" as="sourcePoint" />
            <mxPoint x="630" y="810" as="targetPoint" />
            <Array as="points">
              <mxPoint x="710" y="810" />
            </Array>
          </mxGeometry>
        </mxCell>
        <mxCell id="NkWYa5Ao2wydhZJ7beP6-45" value="" style="endArrow=classic;html=1;rounded=0;exitX=0.5;exitY=1;exitDx=0;exitDy=0;" edge="1" parent="1" source="NkWYa5Ao2wydhZJ7beP6-41">
          <mxGeometry width="50" height="50" relative="1" as="geometry">
            <mxPoint x="400" y="770" as="sourcePoint" />
            <mxPoint x="490" y="810" as="targetPoint" />
            <Array as="points">
              <mxPoint x="414" y="810" />
            </Array>
          </mxGeometry>
        </mxCell>
        <mxCell id="NkWYa5Ao2wydhZJ7beP6-46" value="" style="endArrow=classic;html=1;rounded=0;" edge="1" parent="1">
          <mxGeometry width="50" height="50" relative="1" as="geometry">
            <mxPoint x="559.5" y="640" as="sourcePoint" />
            <mxPoint x="559.5" y="680" as="targetPoint" />
          </mxGeometry>
        </mxCell>
        <mxCell id="NkWYa5Ao2wydhZJ7beP6-47" value="Confirmação" style="rounded=0;whiteSpace=wrap;html=1;fillColor=#f8cecc;strokeColor=#b85450;" vertex="1" parent="1">
          <mxGeometry x="500" y="900" width="120" height="60" as="geometry" />
        </mxCell>
        <mxCell id="NkWYa5Ao2wydhZJ7beP6-48" value="" style="edgeStyle=orthogonalEdgeStyle;rounded=0;orthogonalLoop=1;jettySize=auto;html=1;" edge="1" parent="1" source="NkWYa5Ao2wydhZJ7beP6-49" target="NkWYa5Ao2wydhZJ7beP6-50">
          <mxGeometry relative="1" as="geometry" />
        </mxCell>
        <mxCell id="NkWYa5Ao2wydhZJ7beP6-49" value="Whatsapp" style="rounded=0;whiteSpace=wrap;html=1;fillColor=#f8cecc;strokeColor=#b85450;dashed=1;" vertex="1" parent="1">
          <mxGeometry x="-200" y="100" width="120" height="60" as="geometry" />
        </mxCell>
        <mxCell id="NkWYa5Ao2wydhZJ7beP6-50" value="Redirecionamento Para Chat no Whatsapp" style="rounded=0;whiteSpace=wrap;html=1;fillColor=#f8cecc;strokeColor=#b85450;" vertex="1" parent="1">
          <mxGeometry x="-400" y="100" width="120" height="60" as="geometry" />
        </mxCell>
        <mxCell id="NkWYa5Ao2wydhZJ7beP6-51" value="" style="edgeStyle=orthogonalEdgeStyle;rounded=0;orthogonalLoop=1;jettySize=auto;html=1;" edge="1" parent="1" source="NkWYa5Ao2wydhZJ7beP6-52" target="NkWYa5Ao2wydhZJ7beP6-53">
          <mxGeometry relative="1" as="geometry" />
        </mxCell>
        <mxCell id="NkWYa5Ao2wydhZJ7beP6-52" value="Instagram" style="rounded=0;whiteSpace=wrap;html=1;fillColor=#f8cecc;strokeColor=#b85450;dashed=1;" vertex="1" parent="1">
          <mxGeometry y="280" width="120" height="60" as="geometry" />
        </mxCell>
        <mxCell id="NkWYa5Ao2wydhZJ7beP6-53" value="Redirecionamento Para Insta da Empresa" style="rounded=0;whiteSpace=wrap;html=1;fillColor=#f8cecc;strokeColor=#b85450;" vertex="1" parent="1">
          <mxGeometry y="420" width="120" height="60" as="geometry" />
        </mxCell>
      </root>
    </mxGraphModel>
  </diagram>
</mxfile>
